Coordinates
version=1
nRows=29
nColumns=22
inDegrees=yes

Units are S.I. units (second, meters, Newtons, ...)
If the header above contains a line with 'inDegrees', this indicates whether rotational values are in degrees (yes) or radians (no).

endheader
time	pelvis_tilt	pelvis_list	pelvis_rotation	pelvis_tx	pelvis_ty	pelvis_tz	hip_flexion_r	hip_adduction_r	hip_rotation_r	knee_angle_r	ankle_angle_r	subtalar_angle_r	hip_flexion_l	hip_adduction_l	hip_rotation_l	knee_angle_l	ankle_angle_l	subtalar_angle_l	lumbar_extension	lumbar_bending	lumbar_rotation
      1.48000000	     -2.57105320	     -2.26877454	      6.78370155	      1.03403519	      1.01246423	      0.19614055	      8.15935784	      1.09011312	     -6.62685248	    -20.34975772	     10.66103633	     -0.03477966	      5.04142990	     -6.24204677	     -6.34625306	    -12.56391128	      8.82453475	      3.09574118	     -4.13940435	     -0.08124581	     -0.68053683
      1.49000000	     -2.68207702	     -2.18110510	      7.09029920	      1.03198128	      1.01228703	      0.19721401	      8.53431581	      0.99948675	     -6.90263665	    -20.64213547	     10.66889661	     -0.09215013	      5.49221246	     -6.19811274	     -6.02912821	    -12.82802917	      8.70081539	      3.20496040	     -4.30377328	     -0.09372868	     -0.67046562
      1.50000000	     -2.82319160	     -2.09358593	      7.41210039	      1.02981669	      1.01207915	      0.19827692	      8.94117875	      0.89750510	     -7.19838889	    -20.92582388	     10.66671859	     -0.14477037	      5.99248002	     -6.14506242	     -5.70034539	    -13.10536181	      8.55834542	      3.31959541	     -4.44874521	     -0.10457809	     -0.65802978
      1.51000000	     -3.02625881	     -2.02399289	      7.74604281	      1.02750531	      1.01178296	      0.19935848	      9.42400636	      0.80319014	     -7.47876363	    -21.21300567	     10.66803768	     -0.20532564	      6.58587034	     -6.09746089	     -5.34043113	    -13.40789522	      8.43071271	      3.45281433	     -4.53828776	     -0.10066454	     -0.64494780
      1.52000000	     -3.23613254	     -1.94934638	      8.12708908	      1.02509779	      1.01151207	      0.20039530	      9.89162472	      0.68770345	     -7.82770066	    -21.45654339	     10.64842474	     -0.25023967	      7.21257676	     -6.03284628	     -4.94409663	    -13.73027762	      8.25738153	      3.58486441	     -4.63587744	     -0.10459808	     -0.64882490
      1.53000000	     -3.50138245	     -1.89466632	      8.54645324	      1.02254501	      1.01117523	      0.20141379	     10.41217928	      0.57310138	     -8.21689958	    -21.67556693	     10.61388699	     -0.29867646	      7.94640066	     -5.97273278	     -4.53345353	    -14.10486546	      8.07667437	      3.73797667	     -4.68428525	     -0.09464836	     -0.66527208
      1.54000000	     -3.76813992	     -1.84282942	      9.03970849	      1.01984921	      1.01086554	      0.20234125	     10.91602756	      0.44141038	     -8.66939647	    -21.86002756	     10.57398335	     -0.33851411	      8.70994210	     -5.88905600	     -3.99300444	    -14.48963400	      7.87074135	      3.89152262	     -4.75125984	     -0.07856114	     -0.74221389
      1.55000000	     -4.09782501	     -1.82205560	      9.56398573	      1.01699919	      1.01046354	      0.20324288	     11.48557324	      0.31687849	     -9.15533867	    -22.02446883	     10.51743588	     -0.39243552	      9.60611954	     -5.81717454	     -3.47785760	    -14.95741662	      7.67760192	      4.08356736	     -4.75801732	     -0.03654163	     -0.82475977
      1.56000000	     -4.42475610	     -1.81190081	     10.14585698	      1.01403062	      1.01007564	      0.20403551	     12.03757602	      0.18054667	     -9.69385283	    -22.16003722	     10.45660310	     -0.44474509	     10.53349988	     -5.72595490	     -2.86893900	    -15.45636509	      7.48992326	      4.29002239	     -4.78093897	      0.02379128	     -0.94940112
      1.57000000	     -4.75961535	     -1.81669320	     10.76164335	      1.01096224	      1.00967308	      0.20473420	     12.59140046	      0.03688126	    -10.26326769	    -22.27847475	     10.38865097	     -0.50086822	     11.50709472	     -5.62147691	     -2.21614940	    -16.00570815	      7.32836895	      4.52822331	     -4.80126830	      0.10499824	     -1.08915598
      1.58000000	     -5.08958911	     -1.82942327	     11.40498119	      1.00782189	      1.00927021	      0.20531010	     13.13236856	     -0.12076246	    -10.85537228	    -22.38305337	     10.32253297	     -0.55881080	     12.50900441	     -5.49666271	     -1.53315397	    -16.61336192	      7.21366998	      4.80373460	     -4.82915126	      0.20663846	     -1.24052876
      1.59000000	     -5.40889782	     -1.84411777	     12.06461549	      1.00462184	      1.00887240	      0.20577712	     13.66262305	     -0.29580131	    -11.45693881	    -22.49173405	     10.25693539	     -0.61939019	     13.52682437	     -5.34763180	     -0.83016034	    -17.28430929	      7.16052558	      5.13789993	     -4.86883980	      0.31945611	     -1.39423540
      1.60000000	     -5.70694272	     -1.84996548	     12.73146677	      1.00139334	      1.00850068	      0.20612518	     14.16906973	     -0.49615989	    -12.05734970	    -22.60692695	     10.19366745	     -0.68187663	     14.54025820	     -5.16953456	     -0.13979934	    -18.02638941	      7.18749977	      5.54510198	     -4.92724084	      0.43512304	     -1.54257560
      1.61000000	     -5.97340956	     -1.84004250	     13.39755854	      0.99816160	      1.00817437	      0.20638185	     14.64146182	     -0.72113434	    -12.63989170	    -22.73404879	     10.13563458	     -0.74567542	     15.52980629	     -4.96502880	      0.51186659	    -18.84760813	      7.30696364	      6.02196483	     -5.01315596	      0.54154592	     -1.68423110
      1.62000000	     -6.20224708	     -1.80615723	     14.04063282	      0.99497147	      1.00790243	      0.20657197	     15.07844442	     -0.97227622	    -13.19115065	    -22.88782124	     10.08650725	     -0.81796503	     16.47398204	     -4.74033105	      1.07607812	    -19.75611050	      7.55137817	      6.58246055	     -5.12759251	      0.62995421	     -1.79189624
      1.63000000	     -6.38346505	     -1.74193979	     14.65470832	      0.99186121	      1.00771354	      0.20672211	     15.45907939	     -1.24394131	    -13.68923727	    -23.05238403	     10.04459975	     -0.89531510	     17.35521381	     -4.50414770	      1.51421422	    -20.76796168	      7.90223125	      7.16093731	     -5.27608704	      0.69219838	     -1.88005047
      1.64000000	     -6.51881989	     -1.64844027	     15.24080976	      0.98885573	      1.00761670	      0.20684530	     15.77987619	     -1.53114646	    -14.13650799	    -23.21845193	     10.00051944	     -0.96936240	     18.17102146	     -4.26699073	      1.80560866	    -21.89843185	      8.31389446	      7.64571010	     -5.44918660	      0.72637687	     -1.96429895
      1.65000000	     -6.61613067	     -1.52973175	     15.75502791	      0.98597003	      1.00758557	      0.20704470	     16.06993095	     -1.81814629	    -14.49693240	    -23.41479355	      9.95993289	     -1.05786737	     18.91836985	     -4.05849755	      1.90081217	    -23.16153896	      8.83273882	      8.06588716	     -5.63630905	      0.72355212	     -1.98056167
      1.66000000	     -6.67605397	     -1.38932688	     16.19800294	      0.98320814	      1.00763262	      0.20732225	     16.31989904	     -2.09741124	    -14.77171513	    -23.61791581	      9.91031556	     -1.15013489	     19.59547575	     -3.89041870	      1.80194808	    -24.56624946	      9.39227140	      8.31672409	     -5.83063242	      0.68623888	     -1.94769885
      1.67000000	     -6.68300744	     -1.22696858	     16.56636933	      0.98056585	      1.00777844	      0.20770675	     16.51381038	     -2.35916950	    -14.95275366	    -23.82515227	      9.87438027	     -1.22940108	     20.17236076	     -3.77347059	      1.54567938	    -26.10112829	      9.98101465	      8.32642448	     -6.05147564	      0.61626031	     -1.86479609
      1.68000000	     -6.71563898	     -1.08226488	     16.85379695	      0.97802337	      1.00790182	      0.20822033	     16.74140972	     -2.58573168	    -15.06260067	    -24.02162874	      9.77178069	     -1.32857144	     20.75672217	     -3.73637201	      1.12070343	    -27.79344446	     10.47084986	      8.18057964	     -6.18885310	      0.53002137	     -1.74556798
      1.69000000	     -6.71522735	     -0.93547211	     17.06014515	      0.97558222	      1.00808064	      0.20885054	     16.93888514	     -2.77975374	    -15.09536082	    -24.21497570	      9.67233599	     -1.41912408	     21.24752951	     -3.76558025	      0.61904103	    -29.58543126	     10.92196520	      7.81570058	     -6.32097768	      0.42376224	     -1.57039252
      1.70000000	     -6.70120567	     -0.80075031	     17.18795281	      0.97324204	      1.00828687	      0.20959180	     17.11975771	     -2.93156407	    -15.06057327	    -24.38336382	      9.55553770	     -1.49559775	     21.66343598	     -3.86564579	      0.07159746	    -31.45788193	     11.29108403	      7.30539707	     -6.41775542	      0.30685516	     -1.35794676
      1.71000000	     -6.65860244	     -0.67838866	     17.23887852	      0.97098635	      1.00852812	      0.21041664	     17.27176675	     -3.03938334	    -14.96552387	    -24.53270313	      9.44758040	     -1.55106391	     21.97520929	     -4.02409676	     -0.45330945	    -33.37698518	     11.62323611	      6.78014759	     -6.49967690	      0.19061252	     -1.09981824
      1.72000000	     -6.62887759	     -0.57491910	     17.23340185	      0.96879347	      1.00875827	      0.21126516	     17.43011425	     -3.12165181	    -14.86007972	    -24.64872619	      9.30320558	     -1.59543961	     22.22768408	     -4.22029998	     -0.94186141	    -35.31457900	     11.81446016	      6.20329427	     -6.51474956	      0.07266799	     -0.82651184
      1.73000000	     -6.61068405	     -0.47237196	     17.20209915	      0.96664198	      1.00898449	      0.21204635	     17.58539592	     -3.21202589	    -14.78478802	    -24.73673454	      9.13742364	     -1.62451332	     22.40568500	     -4.40601376	     -1.33778907	    -37.23136949	     11.87850085	      5.58200993	     -6.47268625	     -0.05570182	     -0.57717336
      1.74000000	     -6.54004143	     -0.39408127	     17.11240600	      0.96455651	      1.00926703	      0.21285575	     17.67576961	     -3.24062246	    -14.65604646	    -24.78292300	      9.01350104	     -1.61381976	     22.44663923	     -4.63783087	     -1.66049447	    -39.10982090	     11.93591259	      5.25697108	     -6.44671713	     -0.15503287	     -0.29819436
      1.75000000	     -6.49272838	     -0.33042268	     17.00718370	      0.96248878	      1.00951274	      0.21356423	     17.77729990	     -3.26995630	    -14.56199257	    -24.79982876	      8.87393174	     -1.57834313	     22.42994731	     -4.85634384	     -1.89860922	    -40.92100971	     11.89792199	      4.98670055	     -6.35180797	     -0.24868361	     -0.05422420
      1.76000000	     -6.43955919	     -0.27404129	     16.89180445	      0.96044205	      1.00975988	      0.21417314	     17.85738853	     -3.29619947	    -14.49184487	    -24.78858889	      8.75094682	     -1.51721825	     22.32006328	     -5.06432303	     -2.06825668	    -42.63829702	     11.81260286	      4.84747890	     -6.22991194	     -0.33558006	      0.15653908
